<svg width="642" height="2709" viewBox="0 0 642 2709" fill="none" xmlns="http://www.w3.org/2000/svg">
<path d="M636 516L640.945 516.737L641.005 516.333L640.999 515.926L636 516ZM584 1416L588.998 1416.13L584 1416ZM5.99988 1892L10.9886 1892.34L5.99988 1892ZM315.326 0.22298C313.382 5.3381 311.503 10.3757 309.691 15.3372L319.083 18.7687C320.881 13.8493 322.744 8.85254 324.674 3.77702L315.326 0.22298ZM299.593 44.2026C296.134 54.5783 292.988 64.5906 290.144 74.2536L299.737 77.0768C302.545 67.535 305.655 57.6362 309.08 47.3659L299.593 44.2026ZM282.011 104.204C279.41 114.72 277.211 124.775 275.394 134.393L285.22 136.25C287 126.828 289.159 116.954 291.718 106.604L282.011 104.204ZM270.699 165.112C269.439 176.213 268.771 186.647 268.659 196.46L278.659 196.574C278.766 187.132 279.409 177.038 280.635 166.239L270.699 165.112ZM270.448 228.114C271.953 239.398 274.378 249.674 277.638 259.048L287.083 255.763C284.064 247.081 281.784 237.468 280.36 226.791L270.448 228.114ZM291.893 287.7C298.076 296.815 305.318 304.68 313.404 311.516L319.86 303.879C312.423 297.592 305.807 290.399 300.169 282.087L291.893 287.7ZM339.964 329.156C349.133 333.958 358.875 338.022 369 341.556L372.295 332.114C362.531 328.706 353.253 324.828 344.604 320.297L339.964 329.156ZM399.07 350.456C409.006 352.973 419.16 355.214 429.379 357.332L431.408 347.54C421.265 345.437 411.267 343.23 401.525 340.763L399.07 350.456ZM459.72 363.401C469.865 365.415 479.943 367.46 489.856 369.688L492.049 359.932C482.009 357.674 471.829 355.61 461.667 353.592L459.72 363.401ZM519.441 377.213C529.406 380.123 539.008 383.395 548.113 387.202L551.97 377.976C542.446 373.994 532.48 370.602 522.244 367.614L519.441 377.213ZM574.702 400.965C583.108 406.37 590.781 412.562 597.573 419.743L604.838 412.871C597.429 405.038 589.113 398.342 580.109 392.554L574.702 400.965ZM614.694 443.569C619.068 451.772 622.672 460.952 625.372 471.269L635.046 468.737C632.16 457.71 628.28 447.796 623.519 438.865L614.694 443.569ZM630.255 500.612C630.669 505.559 630.921 510.71 631 516.074L640.999 515.926C640.916 510.344 640.654 504.964 640.22 499.777L630.255 500.612ZM631.055 515.263C630.321 520.188 629.36 524.965 628.184 529.603L637.876 532.062C639.137 527.095 640.163 521.988 640.945 516.737L631.055 515.263ZM618.253 556.539C613.983 565.177 608.831 573.282 602.882 580.908L610.767 587.059C617.11 578.927 622.63 570.249 627.217 560.971L618.253 556.539ZM583.103 602.061C576.066 608.433 568.384 614.426 560.128 620.08L565.778 628.331C574.365 622.451 582.407 616.181 589.815 609.473L583.103 602.061ZM535.001 635.368C526.552 639.959 517.693 644.296 508.48 648.413L512.56 657.543C521.979 653.334 531.072 648.883 539.775 644.155L535.001 635.368ZM481.061 659.675C471.956 663.122 462.604 666.404 453.049 669.549L456.176 679.047C465.851 675.863 475.343 672.532 484.601 669.027L481.061 659.675ZM424.637 678.36C415.198 681.126 405.621 683.79 395.946 686.376L398.528 696.037C408.267 693.434 417.922 690.748 427.45 687.956L424.637 678.36ZM367.06 693.823C357.425 696.228 347.739 698.58 338.039 700.901L340.365 710.626C350.086 708.301 359.806 705.941 369.482 703.525L367.06 693.823ZM308.934 707.793C299.18 710.09 289.449 712.379 279.791 714.681L282.109 724.408C291.752 722.11 301.468 719.825 311.226 717.527L308.934 707.793ZM250.655 721.753C240.834 724.193 231.126 726.674 221.581 729.221L224.16 738.883C233.637 736.354 243.287 733.888 253.066 731.458L250.655 721.753ZM192.638 737.336C182.818 740.242 173.231 743.257 163.935 746.413L167.15 755.882C176.301 752.776 185.76 749.8 195.476 746.925L192.638 737.336ZM135.657 756.868C125.985 760.781 116.743 764.919 108.014 769.329L112.524 778.255C120.967 773.988 129.951 769.963 139.407 766.138L135.657 756.868ZM81.5281 784.707C72.6967 790.651 64.673 797.061 57.6113 804.019L64.6301 811.142C71.1843 804.684 78.7103 798.657 87.1116 793.003L81.5281 784.707ZM38.3775 828.445C33.1347 837.409 29.2542 847.092 26.9164 857.573L36.6766 859.75C38.7831 850.306 42.2747 841.589 47.0095 833.493L38.3775 828.445ZM24.5197 888.552C25.0371 898.124 26.6355 908.206 29.3757 918.84L39.0594 916.345C36.4655 906.279 34.983 896.853 34.5052 888.012L24.5197 888.552ZM39.1061 947.74C41.0335 952.442 43.1574 957.241 45.4825 962.143L54.5175 957.857C52.2651 953.109 50.2143 948.473 48.3587 943.947L39.1061 947.74ZM45.4825 962.143C47.7854 966.998 50.1476 971.748 52.5667 976.396L61.4374 971.78C59.0755 967.242 56.7681 962.602 54.5175 957.857L45.4825 962.143ZM68.1177 1003.69C73.7792 1012.79 79.6789 1021.44 85.7935 1029.69L93.8256 1023.73C87.8726 1015.7 82.1255 1007.27 76.6073 998.406L68.1177 1003.69ZM105.563 1054.14C112.604 1062.13 119.864 1069.68 127.313 1076.83L134.237 1069.62C126.986 1062.66 119.92 1055.31 113.068 1047.53L105.563 1054.14ZM150.853 1097.64C159.07 1104.34 167.461 1110.62 175.989 1116.55L181.695 1108.34C173.365 1102.55 165.179 1096.41 157.169 1089.89L150.853 1097.64ZM202.401 1133.55C211.441 1138.95 220.59 1144.01 229.808 1148.79L234.409 1139.91C225.353 1135.22 216.381 1130.25 207.528 1124.97L202.401 1133.55ZM257.961 1162.46C267.51 1166.82 277.093 1170.92 286.668 1174.83L290.45 1165.58C280.981 1161.71 271.521 1157.65 262.109 1153.36L257.961 1162.46ZM315.755 1186.2C325.575 1189.89 335.346 1193.42 345.019 1196.87L348.373 1187.45C338.732 1184.01 329.018 1180.5 319.269 1176.84L315.755 1186.2ZM374.303 1207.19C384.233 1210.68 393.999 1214.13 403.565 1217.61L406.986 1208.22C397.365 1204.72 387.554 1201.25 377.619 1197.76L374.303 1207.19ZM432.454 1228.56C442.233 1232.45 451.703 1236.44 460.809 1240.63L464.989 1231.55C455.688 1227.27 446.051 1223.2 436.148 1219.26L432.454 1228.56ZM488.102 1254.49C497.189 1259.63 505.745 1265.09 513.699 1270.99L519.652 1262.95C511.319 1256.78 502.41 1251.1 493.024 1245.79L488.102 1254.49ZM536.409 1290.81C543.349 1298.04 549.553 1305.86 554.936 1314.4L563.396 1309.06C557.629 1299.92 550.999 1291.57 543.62 1283.89L536.409 1290.81ZM568.142 1341.2C571.481 1350.2 574.112 1359.91 575.957 1370.42L585.807 1368.69C583.862 1357.61 581.078 1347.32 577.517 1337.72L568.142 1341.2ZM578.962 1400.37C579.126 1405.38 579.141 1410.54 579.002 1415.87L588.998 1416.13C589.142 1410.62 589.127 1405.26 588.957 1400.04L578.962 1400.37ZM579.002 1415.87C578.87 1420.93 578.5 1425.87 577.904 1430.69L587.828 1431.92C588.465 1426.77 588.858 1421.51 588.998 1416.13L579.002 1415.87ZM571.389 1459.22C568.221 1468.54 564.117 1477.43 559.164 1485.93L567.803 1490.96C573.076 1481.92 577.464 1472.42 580.857 1462.44L571.389 1459.22ZM542.067 1510.04C535.849 1517.44 528.939 1524.52 521.41 1531.35L528.126 1538.76C535.951 1531.67 543.18 1524.25 549.719 1516.48L542.067 1510.04ZM498.216 1550.21C490.329 1556 481.995 1561.61 473.273 1567.04L478.561 1575.53C487.473 1569.98 496.022 1564.23 504.139 1558.26L498.216 1550.21ZM447.185 1582.23C438.51 1586.97 429.56 1591.59 420.384 1596.11L424.805 1605.08C434.089 1600.51 443.165 1595.82 451.98 1591L447.185 1582.23ZM393.02 1609.05C383.914 1613.2 374.652 1617.27 365.272 1621.3L369.22 1630.49C378.652 1626.44 387.981 1622.33 397.163 1618.15L393.02 1609.05ZM337.273 1633.09C327.944 1636.94 318.548 1640.78 309.123 1644.6L312.884 1653.87C322.318 1650.04 331.737 1646.2 341.096 1642.33L337.273 1633.09ZM280.904 1656.04C271.476 1659.87 262.058 1663.71 252.694 1667.58L256.516 1676.82C265.85 1672.96 275.246 1669.13 284.665 1665.31L280.904 1656.04ZM224.574 1679.41C215.151 1683.45 205.823 1687.56 196.635 1691.73L200.773 1700.84C209.885 1696.69 219.148 1692.62 228.519 1688.6L224.574 1679.41ZM168.994 1704.77C159.699 1709.34 150.603 1714.02 141.757 1718.83L146.535 1727.61C155.244 1722.88 164.216 1718.26 173.405 1713.75L168.994 1704.77ZM115.133 1734.23C106.222 1739.74 97.6557 1745.43 89.5006 1751.35L95.3716 1759.44C103.304 1753.69 111.662 1748.13 120.39 1742.74L115.133 1734.23ZM65.3792 1770.62C57.4833 1777.62 50.1518 1784.93 43.4748 1792.59L51.0124 1799.16C57.3784 1791.86 64.4022 1784.85 72.0134 1778.11L65.3792 1770.62ZM24.8662 1817.67C19.3553 1826.58 14.6826 1835.92 10.954 1845.73L20.3026 1849.28C23.7924 1840.1 28.1758 1831.33 33.3697 1822.93L24.8662 1817.67ZM2.82402 1875.95C1.97931 1881.08 1.3718 1886.31 1.01119 1891.66L10.9886 1892.34C11.3279 1887.3 11.8989 1882.38 12.6908 1877.58L2.82402 1875.95ZM1.01119 1891.66C0.656383 1896.93 0.657666 1902.09 0.999894 1907.15L10.9771 1906.47C10.6658 1901.87 10.6634 1897.16 10.9886 1892.34L1.01119 1891.66ZM7.24149 1936.96C10.6195 1946.39 15.2392 1955.4 20.9252 1964.03L29.2766 1958.53C23.9802 1950.49 19.7377 1942.2 16.6562 1933.59L7.24149 1936.96ZM39.6827 1987.49C46.2914 1994.49 53.6044 2001.26 61.513 2007.84L67.9091 2000.15C60.2592 1993.78 53.247 1987.29 46.954 1980.62L39.6827 1987.49ZM85.1436 2025.81C93.0042 2031.33 101.264 2036.73 109.853 2042.06L115.123 2033.56C106.668 2028.32 98.5691 2023.01 90.8864 2017.63L85.1436 2025.81ZM135.234 2057.08C143.624 2061.84 152.243 2066.56 161.041 2071.26L165.749 2062.44C157.012 2057.77 148.47 2053.1 140.17 2048.39L135.234 2057.08ZM187.103 2084.88C195.726 2089.3 204.471 2093.73 213.291 2098.17L217.787 2089.24C208.978 2084.8 200.26 2080.39 191.67 2075.98L187.103 2084.88ZM239.456 2111.31C248.136 2115.66 256.848 2120.05 265.558 2124.49L270.095 2115.58C261.361 2111.13 252.629 2106.73 243.944 2102.37L239.456 2111.31ZM291.542 2137.9C300.182 2142.42 308.779 2147.01 317.297 2151.68L322.1 2142.91C313.52 2138.21 304.868 2133.59 296.185 2129.04L291.542 2137.9ZM342.699 2165.99C351.139 2170.89 359.457 2175.89 367.612 2181L372.918 2172.52C364.659 2167.35 356.246 2162.3 347.722 2157.34L342.699 2165.99ZM391.94 2196.92C400.017 2202.46 407.873 2208.14 415.467 2213.97L421.554 2206.03C413.806 2200.09 405.806 2194.31 397.599 2188.68L391.94 2196.92ZM437.883 2232.32C445.22 2238.75 452.218 2245.37 458.83 2252.19L466.009 2245.23C459.194 2238.2 451.999 2231.4 444.478 2224.8L437.883 2232.32ZM477.852 2273.76C483.861 2281.31 489.395 2289.1 494.402 2297.15L502.893 2291.87C497.669 2283.47 491.909 2275.37 485.677 2267.54L477.852 2273.76ZM507.888 2322.32C511.783 2330.93 515.099 2339.82 517.781 2349.03L527.382 2346.24C524.564 2336.56 521.083 2327.22 516.998 2318.2L507.888 2322.32ZM523.768 2376.9C525.07 2386.09 525.774 2395.6 525.832 2405.43L535.832 2405.37C535.771 2395.1 535.035 2385.14 533.669 2375.49L523.768 2376.9ZM524.217 2434.22C523.168 2443.3 521.597 2452.64 519.471 2462.26L529.235 2464.42C531.432 2454.48 533.061 2444.8 534.151 2435.37L524.217 2434.22ZM512.049 2489.9C509.244 2498.83 505.986 2507.97 502.253 2517.35L511.544 2521.05C515.364 2511.45 518.706 2502.07 521.588 2492.9L512.049 2489.9ZM490.753 2543.77C486.794 2552.17 482.471 2560.75 477.772 2569.51L486.583 2574.23C491.361 2565.33 495.762 2556.6 499.798 2548.04L490.753 2543.77ZM463.248 2595.12C458.511 2603.06 453.478 2611.14 448.139 2619.36L456.527 2624.81C461.931 2616.48 467.031 2608.3 471.836 2600.24L463.248 2595.12ZM431.603 2643.89C426.276 2651.52 420.697 2659.26 414.86 2667.13L422.889 2673.09C428.782 2665.15 434.417 2657.33 439.801 2649.62L431.603 2643.89ZM397.063 2690.45C393.973 2694.39 390.819 2698.36 387.603 2702.37L395.398 2708.63C398.64 2704.6 401.819 2700.59 404.935 2696.61L397.063 2690.45Z" fill="url(#paint0_linear_49_9)"/>
<defs>
<linearGradient id="paint0_linear_49_9" x1="332.666" y1="4" x2="332.666" y2="2705.5" gradientUnits="userSpaceOnUse">
<stop stop-color="#00AAFF"/>
<stop offset="0.328125" stop-color="#FF6163"/>
<stop offset="0.682292" stop-color="#A169F7"/>
<stop offset="1" stop-color="#97CF26"/>
</linearGradient>
</defs>
</svg>
