<svg width="56" height="56" viewBox="0 0 56 56" fill="none" xmlns="http://www.w3.org/2000/svg">
<circle cx="27.9793" cy="27.9793" r="27.9793" fill="#40B3E0"/>
<path d="M37.9579 18.4916L34.2021 37.4272C34.2021 37.4272 33.677 38.7404 32.2325 38.1101L23.5658 31.4656L20.4144 29.9424L15.1093 28.1565C15.1093 28.1565 14.2952 27.8677 14.2164 27.2374C14.1375 26.607 15.1356 26.2657 15.1356 26.2657L36.2243 17.9929C36.2243 17.9929 37.9577 17.2313 37.9577 18.4919" fill="white"/>
<path d="M22.8995 37.2145C22.8995 37.2145 22.6465 37.1908 22.3311 36.1927C22.0162 35.1947 20.4141 29.9423 20.4141 29.9423L33.1515 21.8535C33.1515 21.8535 33.8869 21.407 33.8606 21.8535C33.8606 21.8535 33.9919 21.9323 33.5978 22.3C33.204 22.6678 23.5919 31.308 23.5919 31.308" fill="#D2E5F1"/>
<path d="M26.8894 34.013L23.4615 37.1385C23.4615 37.1385 23.1935 37.3418 22.9004 37.2143L23.5568 31.4089" fill="#B5CFE4"/>
</svg>
